<svg width="19" height="19" viewBox="0 0 19 19" fill="none" xmlns="http://www.w3.org/2000/svg">
<g clip-path="url(#clip0_8340_14909)">
<path d="M9.50566 0C11.089 0 12.6723 0 14.2557 0C16.5911 0 18.5702 1.69077 18.9491 3.99792C18.9887 4.23542 19 4.47857 19 4.71607C19.0057 7.90536 19.0057 11.089 19 14.2783C19 16.6533 17.2074 18.672 14.8494 18.9604C14.6458 18.983 14.4423 19 14.2387 19C11.089 19 7.93363 19 4.78393 19C2.42024 19 0.458036 17.3432 0.0622024 15.0134C0.022619 14.7872 0.0113095 14.5497 0.0113095 14.3179C0 11.106 0 7.8997 0 4.6878C0.00565476 2.34673 1.81518 0.316667 4.14494 0.0395833C4.35417 0.0169643 4.56339 0 4.77827 0C6.3503 0 7.92798 0 9.50566 0ZM17.6429 9.51131C17.6429 7.95625 17.6429 6.40119 17.6429 4.84613C17.6429 4.61429 17.6315 4.37679 17.5863 4.1506C17.2527 2.47679 15.8899 1.35714 14.1878 1.35714C11.0664 1.35714 7.93929 1.35714 4.81786 1.35714C4.59167 1.35714 4.36548 1.37411 4.14494 1.41935C2.47113 1.75863 1.3628 3.11577 1.3628 4.82351C1.3628 7.93929 1.3628 11.0551 1.3628 14.1708C1.3628 14.397 1.37976 14.6232 1.41935 14.8438C1.75298 16.5176 3.11577 17.6372 4.81786 17.6372C7.93929 17.6429 11.0664 17.6429 14.1878 17.6315C14.4818 17.6315 14.7815 17.5976 15.0699 17.5241C16.5967 17.1396 17.6372 15.8107 17.6485 14.2274C17.6485 12.661 17.6429 11.0833 17.6429 9.51131Z" fill="#ABAAAA"/>
<path d="M8.82142 8.82149C8.82142 8.45393 8.82142 8.10899 8.82142 7.76405C8.82142 7.21554 8.82142 6.66137 8.82142 6.11286C8.82142 5.71702 9.11547 5.42863 9.50565 5.43429C9.87887 5.43429 10.1729 5.72833 10.1729 6.1072C10.1786 6.92714 10.1729 7.74708 10.1729 8.56702C10.1729 8.64619 10.1729 8.7197 10.1729 8.82714C10.2577 8.82714 10.3369 8.82714 10.4104 8.82714C11.2134 8.82714 12.022 8.82714 12.825 8.82714C13.2604 8.82714 13.5601 9.10423 13.5658 9.4944C13.5714 9.90155 13.2717 10.1786 12.8193 10.1786C12.022 10.1786 11.2247 10.1786 10.4217 10.1786C10.3482 10.1786 10.269 10.1786 10.1673 10.1786C10.1673 10.2691 10.1673 10.3483 10.1673 10.4218C10.1673 11.2248 10.1673 12.0334 10.1673 12.8364C10.1673 13.2718 9.89017 13.5658 9.49434 13.5715C9.09851 13.5715 8.81577 13.2718 8.81577 12.842C8.81577 12.039 8.81577 11.2304 8.81577 10.4274C8.81577 10.3539 8.81577 10.2748 8.81577 10.1786C8.69702 10.1786 8.60089 10.1786 8.50476 10.1786C7.71309 10.1786 6.92142 10.1786 6.12976 10.1786C5.71696 10.1786 5.42291 9.89024 5.42291 9.50006C5.42291 9.10988 5.71696 8.82714 6.13541 8.82714C7.02321 8.82149 7.90535 8.82149 8.82142 8.82149Z" fill="#ABAAAA"/>
</g>
<defs>
<clipPath id="clip0_8340_14909">
<rect width="19" height="19" fill="white"/>
</clipPath>
</defs>
</svg>
