<svg width="30" height="30" viewBox="0 0 30 30" fill="none" xmlns="http://www.w3.org/2000/svg">
<path d="M15 13.0311C16.2632 13.0261 17.4852 13.4799 18.4389 14.3081C19.3926 15.1364 20.013 16.2828 20.1849 17.5343C20.3568 18.7857 20.0685 20.0569 19.3734 21.1117C18.6784 22.1664 17.624 22.9329 16.4063 23.2686V24.4874C16.3777 24.8345 16.2196 25.1581 15.9634 25.394C15.7072 25.63 15.3717 25.7609 15.0234 25.7609C14.6752 25.7609 14.3397 25.63 14.0835 25.394C13.8273 25.1581 13.6692 24.8345 13.6406 24.4874V23.2874C12.5326 22.9838 11.5548 22.3251 10.8571 21.4123C10.1594 20.4996 9.78036 19.3831 9.77813 18.2343C9.77813 17.8613 9.92629 17.5036 10.19 17.2399C10.4537 16.9762 10.8114 16.828 11.1844 16.828C11.5573 16.828 11.915 16.9762 12.1787 17.2399C12.4425 17.5036 12.5906 17.8613 12.5906 18.2343C12.5907 18.722 12.736 19.1988 13.0081 19.6036C13.2801 20.0085 13.6665 20.3232 14.1181 20.5077C14.5696 20.6921 15.0659 20.738 15.5436 20.6393C16.0213 20.5407 16.4588 20.3021 16.8004 19.9538C17.1419 19.6056 17.3721 19.1636 17.4615 18.6841C17.5509 18.2046 17.4955 17.7093 17.3024 17.2614C17.1093 16.8134 16.7872 16.4332 16.3772 16.169C15.9671 15.9048 15.4877 15.7687 15 15.778C13.7302 15.7842 12.5019 15.3266 11.5456 14.4913C10.5893 13.6559 9.97076 12.5002 9.80619 11.2412C9.64161 9.98211 9.94228 8.70626 10.6518 7.65318C11.3612 6.60009 12.4307 5.84219 13.6594 5.52177V4.93114C13.6436 4.73998 13.6677 4.54762 13.73 4.36622C13.7924 4.18482 13.8916 4.01832 14.0216 3.87723C14.1515 3.73614 14.3093 3.62352 14.485 3.54649C14.6606 3.46946 14.8504 3.42969 15.0422 3.42969C15.234 3.42969 15.4237 3.46946 15.5994 3.54649C15.7751 3.62352 15.9329 3.73614 16.0628 3.87723C16.1927 4.01832 16.292 4.18482 16.3544 4.36622C16.4167 4.54762 16.4408 4.73998 16.425 4.93114V5.54989C17.5193 5.8619 18.482 6.52221 19.1672 7.43071C19.8524 8.33922 20.2227 9.44635 20.2219 10.5843C20.1933 10.9314 20.0352 11.255 19.779 11.4909C19.5229 11.7268 19.1873 11.8578 18.8391 11.8578C18.4908 11.8578 18.1553 11.7268 17.8991 11.4909C17.6429 11.255 17.4849 10.9314 17.4563 10.5843C17.4581 10.0981 17.3156 9.62226 17.0469 9.2171C16.7781 8.81194 16.3951 8.49566 15.9465 8.30832C15.4978 8.12097 15.0037 8.07099 14.5266 8.1647C14.0495 8.25842 13.611 8.49161 13.2665 8.83474C12.9221 9.17788 12.6872 9.61552 12.5917 10.0922C12.4961 10.569 12.5442 11.0633 12.7298 11.5127C12.9155 11.962 13.2303 12.3462 13.6344 12.6165C14.0385 12.8868 14.5138 13.0311 15 13.0311Z" fill="#005986"/>
</svg>
