<svg width="20" height="18" viewBox="0 0 20 18" fill="none" xmlns="http://www.w3.org/2000/svg">
<g clip-path="url(#clip0_8340_2160)">
<path d="M9.97917 18C7.51389 18 5.04861 18 2.58333 18C1.06944 18 0 16.9436 0 15.4578C0 14.4218 0 13.3791 0 12.3431C0 11.8183 0.340278 11.4639 0.833333 11.4639C1.31944 11.4639 1.66667 11.8251 1.66667 12.3431C1.66667 13.3654 1.66667 14.3878 1.66667 15.4101C1.66667 16.044 2 16.3711 2.64583 16.3711C7.54861 16.3711 12.4514 16.3711 17.3542 16.3711C18.0139 16.3711 18.3403 16.0508 18.3403 15.3897C18.3403 14.3741 18.3403 13.3654 18.3403 12.3499C18.3403 11.8251 18.6736 11.4639 19.1667 11.4639C19.6667 11.4639 20.0069 11.8251 20.0069 12.3635C20.0069 13.4199 20.0069 14.4764 20.0069 15.5328C20 16.93 18.9097 18.0068 17.4861 18.0068C14.9722 18.0068 12.4792 18 9.97917 18Z" fill="#ABAAAA"/>
<path d="M9.16667 12.2C9.16667 12.0432 9.16667 11.9478 9.16667 11.8455C9.16667 8.19239 9.16667 4.53922 9.16667 0.879247C9.16667 0.231765 9.77084 -0.183987 10.3333 0.0818215C10.6667 0.23858 10.8264 0.504389 10.8264 0.879247C10.8195 3.51007 10.8264 6.14089 10.8264 8.77853C10.8264 9.9031 10.8264 11.0277 10.8264 12.1863C10.9167 12.1318 10.9792 12.0909 11.0347 12.05C11.9028 11.3685 12.7708 10.6869 13.6389 10.0121C14.0556 9.685 14.5486 9.71226 14.8611 10.0871C15.1667 10.4483 15.0972 10.9527 14.6875 11.2799C13.3264 12.3499 11.9653 13.42 10.6042 14.49C10.1597 14.8376 9.81945 14.8308 9.36112 14.4764C8.03473 13.4404 6.71528 12.4044 5.39584 11.3685C4.99306 11.0549 4.92362 10.5574 5.21528 10.1962C5.50695 9.82813 6.02084 9.7736 6.41667 10.0803C7.25001 10.721 8.06945 11.3753 8.90278 12.0228C8.97917 12.0636 9.04862 12.1114 9.16667 12.2Z" fill="#ABAAAA"/>
</g>
<defs>
<clipPath id="clip0_8340_2160">
<rect width="20" height="18" fill="white"/>
</clipPath>
</defs>
</svg>
