<svg width="19" height="19" viewBox="0 0 19 19" fill="none" xmlns="http://www.w3.org/2000/svg">
<path d="M18.8771 4.40621C18.8753 4.40502 18.8735 4.40324 18.8723 4.40206C18.8593 4.15624 18.6598 3.95971 18.4116 3.95971C18.3819 3.95971 18.3564 3.97159 18.3285 3.97634C18.3261 3.97574 18.3243 3.97396 18.3225 3.97337C18.3225 3.97337 17.9479 3.93655 17.7632 3.96209C17.385 4.01434 17.2176 3.86115 17.0608 3.50609C16.7046 2.6974 16.0372 2.25921 15.1442 2.23962C14.2304 2.21884 13.5161 2.62615 13.1444 3.45562C12.9527 3.88549 12.7158 3.96624 12.2966 3.96446C9.04994 3.94902 5.80272 3.95674 2.5561 3.95674C1.98966 3.95674 1.42382 3.95971 0.857379 3.95556C0.501129 3.95318 0.115192 3.95971 0.125285 4.43471C0.134785 4.85627 0.483317 4.90615 0.831254 4.88893C0.963067 4.8818 1.09547 4.88774 1.22729 4.88774C4.96494 4.88774 8.70319 4.89309 12.4403 4.88002C12.7876 4.87884 12.9734 4.95424 13.1053 5.30396C13.3297 5.89712 13.7904 6.28187 14.3955 6.4879C15.5859 6.89284 16.66 6.31037 17.2633 4.88715C17.7656 4.89249 17.9045 4.89249 18.2934 4.86637C18.3291 4.86399 18.3605 4.84559 18.3938 4.83134C18.3997 4.83134 18.4045 4.83371 18.4098 4.83371C18.6669 4.83371 18.8759 4.68349 18.8759 4.4264C18.8759 4.42046 18.8729 4.41571 18.8723 4.40977C18.8747 4.40859 18.8759 4.40681 18.8771 4.40621ZM15.1098 5.66912C14.4459 5.68456 13.8308 5.07893 13.832 4.41155C13.8338 3.75368 14.3949 3.19199 15.0628 3.18071C15.7498 3.16943 16.2937 3.68302 16.3163 4.36584C16.3388 5.06527 15.7955 5.65309 15.1098 5.66912Z" fill="#005986"/>
<path d="M18.471 9.70188C18.465 9.69832 18.4662 9.69297 18.4597 9.68941C18.4543 9.68644 18.4478 9.68585 18.4431 9.68347C18.4246 9.67457 18.4056 9.66982 18.3855 9.66328C18.3558 9.65438 18.3249 9.64844 18.2922 9.64428C18.275 9.6425 18.2602 9.63419 18.2424 9.63419C18.237 9.63419 18.2323 9.63716 18.2275 9.63716C18.1373 9.6336 18.0417 9.63894 17.9556 9.63894C14.2547 9.63835 10.5539 9.63597 6.85306 9.6425C6.49384 9.6431 6.25812 9.614 6.08296 9.1966C5.73443 8.36297 5.04449 7.92953 4.11884 7.92835C3.19377 7.92716 2.54955 8.3796 2.13274 9.18294C2.05793 9.32782 1.99915 9.4816 1.92909 9.64072C1.48377 9.64072 1.00877 9.5665 0.605617 9.63478C0.347336 9.63478 0.138336 9.84438 0.138336 10.1021C0.138336 10.3598 0.34793 10.5688 0.606211 10.5688C1.02718 10.6388 1.50218 10.5616 1.93859 10.5616C1.98015 10.662 2.00746 10.7291 2.03537 10.7968C2.40587 11.6963 3.04415 12.2425 4.04521 12.2728C5.07002 12.3037 5.78074 11.7984 6.15481 10.8722C6.29849 10.5165 6.52234 10.5646 6.77765 10.5646C10.4975 10.5634 14.2167 10.5634 17.936 10.5634C17.9983 10.5634 18.0749 10.5581 18.1533 10.5503C18.183 10.5563 18.2109 10.5682 18.2424 10.5682C18.5006 10.5682 18.7096 10.3586 18.7096 10.1009C18.7102 9.9281 18.6117 9.78263 18.471 9.70188ZM4.13427 11.3466C3.46037 11.3549 2.90937 10.8211 2.89096 10.1442C2.87196 9.43766 3.41227 8.8641 4.10518 8.85578C4.78799 8.84807 5.37046 9.43053 5.36334 10.1145C5.35621 10.7766 4.7969 11.3383 4.13427 11.3466Z" fill="#005986"/>
<path d="M18.3451 15.3205C18.3166 15.3205 18.2922 15.3324 18.2649 15.3366C18.2287 15.3318 18.1931 15.3265 18.1581 15.3259C16.5555 15.3057 14.9524 15.314 13.3095 15.314C13.2679 15.2232 13.2436 15.1733 13.2228 15.121C12.8701 14.2114 12.2324 13.6592 11.2379 13.6129C10.1917 13.566 9.50711 14.0974 9.05705 15.0195C8.98283 15.1709 8.69546 15.3009 8.50486 15.3021C5.99508 15.3211 3.4853 15.3146 0.974334 15.3152C0.805115 15.3152 0.601459 15.2689 0.474396 15.3461C0.280833 15.4037 0.137146 15.5759 0.137146 15.7872C0.137146 15.7884 0.13774 15.789 0.13774 15.7902C0.13774 15.7908 0.137146 15.792 0.137146 15.7926C0.137146 15.7961 0.140115 15.8009 0.140708 15.805C0.150208 16.0544 0.352677 16.2551 0.604427 16.2551C0.611552 16.2551 0.61749 16.2515 0.624615 16.2509C0.757615 16.2688 0.911396 16.2456 1.05093 16.2456C3.5049 16.2468 5.95827 16.2527 8.41105 16.2385C8.79224 16.2373 8.99887 16.3174 9.16808 16.7111C9.5178 17.5222 10.1976 17.9473 11.0889 17.9639C11.9795 17.9805 12.6932 17.5857 13.0542 16.7835C13.2691 16.3044 13.5375 16.2266 13.9935 16.2349C15.409 16.2593 16.8251 16.2498 18.2394 16.242C18.2495 16.242 18.256 16.2397 18.2661 16.2391C18.2922 16.2438 18.316 16.2545 18.3433 16.2545C18.6016 16.2545 18.8106 16.0449 18.8106 15.7872C18.8106 15.5295 18.6034 15.3205 18.3451 15.3205ZM11.1429 17.0234C10.4387 17.027 9.88118 16.4677 9.89246 15.77C9.90196 15.0842 10.5016 14.5071 11.1767 14.5344C11.8376 14.5617 12.3731 15.1341 12.3648 15.8044C12.3553 16.489 11.8233 17.021 11.1429 17.0234Z" fill="#005986"/>
</svg>
