<svg width="20" height="20" viewBox="0 0 20 20" fill="none" xmlns="http://www.w3.org/2000/svg">
<path d="M1.56985 2.66663C1.06931 2.66663 0.666626 3.06102 0.666626 3.55124V5.32047C0.666626 5.8107 1.06931 6.20509 1.56985 6.20509H3.3763C3.87684 6.20509 4.27953 5.8107 4.27953 5.32047V3.55124C4.27953 3.06102 3.87684 2.66663 3.3763 2.66663H1.56985ZM7.29028 3.25637C6.62415 3.25637 6.08598 3.78345 6.08598 4.43586C6.08598 5.08826 6.62415 5.61534 7.29028 5.61534H18.129C18.7951 5.61534 19.3333 5.08826 19.3333 4.43586C19.3333 3.78345 18.7951 3.25637 18.129 3.25637H7.29028ZM7.29028 9.15381C6.62415 9.15381 6.08598 9.68089 6.08598 10.3333C6.08598 10.9857 6.62415 11.5128 7.29028 11.5128H18.129C18.7951 11.5128 19.3333 10.9857 19.3333 10.3333C19.3333 9.68089 18.7951 9.15381 18.129 9.15381H7.29028ZM7.29028 15.0512C6.62415 15.0512 6.08598 15.5783 6.08598 16.2307C6.08598 16.8831 6.62415 17.4102 7.29028 17.4102H18.129C18.7951 17.4102 19.3333 16.8831 19.3333 16.2307C19.3333 15.5783 18.7951 15.0512 18.129 15.0512H7.29028ZM0.666626 9.44868V11.2179C0.666626 11.7081 1.06931 12.1025 1.56985 12.1025H3.3763C3.87684 12.1025 4.27953 11.7081 4.27953 11.2179V9.44868C4.27953 8.95845 3.87684 8.56406 3.3763 8.56406H1.56985C1.06931 8.56406 0.666626 8.95845 0.666626 9.44868ZM1.56985 14.4615C1.06931 14.4615 0.666626 14.8559 0.666626 15.3461V17.1153C0.666626 17.6056 1.06931 18 1.56985 18H3.3763C3.87684 18 4.27953 17.6056 4.27953 17.1153V15.3461C4.27953 14.8559 3.87684 14.4615 3.3763 14.4615H1.56985Z" fill="#ABAAAA"/>
</svg>
